<svg width="152" height="49" viewBox="0 0 152 49" fill="none" xmlns="http://www.w3.org/2000/svg">
<path d="M9.168 37.864C6.256 37.864 4.048 37.064 2.544 35.464C1.072 33.864 0.336 31.848 0.336 29.416C0.336 27.688 0.688 25.96 1.392 24.232C2.128 22.472 3.168 20.936 4.512 19.624C5.856 18.312 7.424 17.432 9.216 16.984C8.224 16.28 7.488 15.432 7.008 14.44C6.528 13.416 6.288 12.344 6.288 11.224C6.288 9.56 6.736 7.928 7.632 6.328C8.56 4.728 9.824 3.432 11.424 2.44C13.056 1.416 14.848 0.903998 16.8 0.903998C18.816 0.903998 20.464 1.432 21.744 2.488C23.024 3.544 23.664 5.016 23.664 6.904C23.664 8.312 23.312 9.496 22.608 10.456C21.904 11.416 21.072 11.896 20.112 11.896C19.248 11.896 18.496 11.464 17.856 10.6C18.432 10.408 18.928 9.88 19.344 9.016C19.76 8.152 19.968 7.288 19.968 6.424C19.968 5.496 19.712 4.824 19.2 4.408C18.688 3.96 18.064 3.736 17.328 3.736C16.4 3.736 15.552 4.072 14.784 4.744C14.048 5.384 13.472 6.232 13.056 7.288C12.64 8.312 12.432 9.384 12.432 10.504C12.432 12.04 12.832 13.4 13.632 14.584C14.432 15.736 15.648 16.52 17.28 16.936C15.648 17.288 14.176 18.088 12.864 19.336C11.552 20.584 10.528 22.04 9.792 23.704C9.056 25.336 8.688 26.904 8.688 28.408C8.688 29.848 9.056 31.016 9.792 31.912C10.56 32.808 11.712 33.256 13.248 33.256C14.848 33.256 16.512 32.824 18.24 31.96C20 31.064 21.296 29.864 22.128 28.36L23.232 28.84C21.984 31.592 20.064 33.784 17.472 35.416C14.88 37.048 12.112 37.864 9.168 37.864ZM26.7833 37.288C25.2473 37.288 23.9993 36.808 23.0393 35.848C22.1113 34.888 21.6472 33.448 21.6472 31.528C21.6472 30.728 21.7752 29.688 22.0312 28.408L24.9113 14.92H23.3273L23.7113 13H25.2953L26.7353 6.376L33.8393 5.416L32.2073 13H35.0873L34.7032 14.92H31.8233L28.7513 29.32C28.6233 29.8 28.5593 30.312 28.5593 30.856C28.5593 31.496 28.7033 31.96 28.9913 32.248C29.3113 32.504 29.8233 32.632 30.5273 32.632C31.4553 32.632 32.3193 32.248 33.1193 31.48C33.9193 30.68 34.4953 29.656 34.8473 28.408H36.8633C35.6793 31.864 34.1593 34.216 32.3033 35.464C30.4473 36.68 28.6073 37.288 26.7833 37.288ZM52.1561 37.288C50.2041 37.288 48.7641 36.776 47.8361 35.752C46.9401 34.696 46.4921 33.4 46.4921 31.864C46.4921 31.192 46.5721 30.44 46.7321 29.608C46.8921 28.744 47.0521 27.912 47.2121 27.112C47.4041 26.312 47.5321 25.8 47.5961 25.576C47.8521 24.456 48.0921 23.352 48.3161 22.264C48.5401 21.176 48.6521 20.296 48.6521 19.624C48.6521 17.992 48.0761 17.176 46.9241 17.176C46.0921 17.176 45.3561 17.592 44.7161 18.424C44.0761 19.224 43.5641 20.28 43.1801 21.592L39.9161 37H33.0041L39.9641 4.36L47.0681 3.4L44.4761 15.496C46.0761 13.704 47.9481 12.808 50.0921 12.808C51.7241 12.808 53.0201 13.256 53.9801 14.152C54.9401 15.048 55.4201 16.408 55.4201 18.232C55.4201 19.16 55.3081 20.2 55.0841 21.352C54.8601 22.472 54.5401 23.848 54.1241 25.48C53.8681 26.472 53.6281 27.448 53.4041 28.408C53.2121 29.336 53.1161 30.072 53.1161 30.616C53.1161 31.256 53.2601 31.752 53.5481 32.104C53.8361 32.456 54.3321 32.632 55.0361 32.632C55.9961 32.632 56.7641 32.296 57.3401 31.624C57.9161 30.92 58.4921 29.848 59.0681 28.408H61.0841C59.9001 31.928 58.5241 34.296 56.9561 35.512C55.4201 36.696 53.8201 37.288 52.1561 37.288ZM67.0785 10.408C66.0225 10.408 65.1265 10.04 64.3905 9.304C63.6545 8.568 63.2865 7.672 63.2865 6.616C63.2865 5.56 63.6545 4.664 64.3905 3.928C65.1265 3.16 66.0225 2.776 67.0785 2.776C68.1345 2.776 69.0305 3.16 69.7665 3.928C70.5345 4.664 70.9185 5.56 70.9185 6.616C70.9185 7.672 70.5345 8.568 69.7665 9.304C69.0305 10.04 68.1345 10.408 67.0785 10.408ZM63.8145 37.288C62.2785 37.288 61.0305 36.808 60.0705 35.848C59.1425 34.888 58.6785 33.448 58.6785 31.528C58.6785 30.728 58.8065 29.688 59.0625 28.408L62.3265 13H69.2385L65.7825 29.32C65.6545 29.8 65.5905 30.312 65.5905 30.856C65.5905 31.496 65.7345 31.96 66.0225 32.248C66.3425 32.504 66.8545 32.632 67.5585 32.632C68.4865 32.632 69.3505 32.248 70.1505 31.48C70.9505 30.68 71.5265 29.656 71.8785 28.408H73.8945C72.7105 31.864 71.1905 34.216 69.3345 35.464C67.4785 36.68 65.6385 37.288 63.8145 37.288ZM78.8674 37.192C76.4994 37.192 74.6274 36.584 73.2514 35.368C71.8754 34.152 71.1874 32.232 71.1874 29.608C71.1874 27.432 71.6354 25.016 72.5314 22.36C73.4274 19.704 74.8674 17.416 76.8514 15.496C78.8354 13.544 81.3314 12.568 84.3394 12.568C88.4354 12.568 90.4834 15.128 90.4834 20.248V20.296C90.5794 20.328 90.7554 20.344 91.0114 20.344C92.0674 20.344 93.2834 20.072 94.6594 19.528C96.0354 18.952 97.2834 18.264 98.4034 17.464L98.8354 18.76C97.9074 19.752 96.6914 20.6 95.1874 21.304C93.7154 21.976 92.0994 22.456 90.3394 22.744C90.0834 25.656 89.4274 28.2 88.3714 30.376C87.3154 32.552 85.9554 34.232 84.2914 35.416C82.6274 36.6 80.8194 37.192 78.8674 37.192ZM80.7874 32.872C81.5554 32.872 82.3234 32.44 83.0914 31.576C83.8594 30.68 84.5314 29.48 85.1074 27.976C85.6834 26.44 86.0994 24.744 86.3554 22.888C85.4914 22.696 85.0594 22.024 85.0594 20.872C85.0594 19.56 85.5554 18.696 86.5474 18.28C86.4834 17.224 86.3234 16.504 86.0674 16.12C85.8114 15.704 85.3634 15.496 84.7234 15.496C83.6674 15.496 82.6434 16.264 81.6514 17.8C80.6594 19.336 79.8594 21.176 79.2514 23.32C78.6434 25.464 78.3394 27.352 78.3394 28.984C78.3394 30.52 78.5154 31.56 78.8674 32.104C79.2194 32.616 79.8594 32.872 80.7874 32.872ZM96.6011 11.224H103.513L102.745 14.824C104.345 13.448 106.217 12.76 108.361 12.76C110.153 12.76 111.577 13.352 112.633 14.536C113.689 15.72 114.217 17.656 114.217 20.344C114.217 22.872 113.849 25.432 113.113 28.024C112.377 30.584 111.129 32.776 109.369 34.6C107.609 36.392 105.289 37.288 102.409 37.288C100.361 37.288 99.0011 36.712 98.3291 35.56L95.8331 47.272L88.5851 49L96.6011 11.224ZM100.921 33.112C102.457 33.112 103.721 32.392 104.713 30.952C105.737 29.512 106.473 27.8 106.921 25.816C107.401 23.8 107.641 21.928 107.641 20.2C107.641 17.544 106.841 16.216 105.241 16.216C104.665 16.216 104.073 16.424 103.465 16.84C102.889 17.256 102.377 17.832 101.929 18.568L99.0971 32.008C99.3531 32.744 99.9611 33.112 100.921 33.112ZM123.422 10.408C122.366 10.408 121.47 10.04 120.734 9.304C119.998 8.568 119.63 7.672 119.63 6.616C119.63 5.56 119.998 4.664 120.734 3.928C121.47 3.16 122.366 2.776 123.422 2.776C124.478 2.776 125.374 3.16 126.11 3.928C126.878 4.664 127.262 5.56 127.262 6.616C127.262 7.672 126.878 8.568 126.11 9.304C125.374 10.04 124.478 10.408 123.422 10.408ZM120.158 37.288C118.622 37.288 117.374 36.808 116.414 35.848C115.486 34.888 115.022 33.448 115.022 31.528C115.022 30.728 115.15 29.688 115.406 28.408L118.67 13H125.582L122.126 29.32C121.998 29.8 121.934 30.312 121.934 30.856C121.934 31.496 122.078 31.96 122.366 32.248C122.686 32.504 123.198 32.632 123.902 32.632C124.83 32.632 125.694 32.248 126.494 31.48C127.294 30.68 127.87 29.656 128.222 28.408H130.238C129.054 31.864 127.534 34.216 125.678 35.464C123.822 36.68 121.982 37.288 120.158 37.288ZM133.963 37.288C132.139 37.288 130.619 36.664 129.403 35.416C128.187 34.168 127.579 32.216 127.579 29.56C127.579 27.192 128.043 24.712 128.971 22.12C129.931 19.496 131.339 17.288 133.195 15.496C135.083 13.672 137.323 12.76 139.915 12.76C141.227 12.76 142.203 12.984 142.843 13.432C143.483 13.88 143.803 14.472 143.803 15.208V15.544L144.331 13H151.243L147.787 29.32C147.659 29.8 147.595 30.312 147.595 30.856C147.595 31.496 147.739 31.96 148.027 32.248C148.347 32.504 148.859 32.632 149.563 32.632C150.011 32.632 150.363 32.568 150.619 32.44C149.915 34.232 149.243 35.496 148.603 36.232C147.963 36.936 147.035 37.288 145.819 37.288C144.507 37.288 143.435 36.904 142.603 36.136C141.803 35.336 141.307 34.232 141.115 32.824C139.163 35.8 136.779 37.288 133.963 37.288ZM137.083 32.632C137.883 32.632 138.667 32.264 139.435 31.528C140.235 30.76 140.779 29.72 141.067 28.408L143.371 17.56C143.371 17.144 143.211 16.744 142.891 16.36C142.571 15.944 142.075 15.736 141.403 15.736C140.123 15.736 138.971 16.488 137.947 17.992C136.923 19.464 136.123 21.256 135.547 23.368C134.971 25.448 134.683 27.288 134.683 28.888C134.683 30.488 134.907 31.512 135.355 31.96C135.835 32.408 136.411 32.632 137.083 32.632Z" fill="#FF9B04"/>
</svg>
